<?xml version="1.0" encoding="UTF-8"?>
<svg xmlns="http://www.w3.org/2000/svg" viewBox="0 0 84 96" role="img" aria-label="S">
  <g transform="translate(-8 -2)">
    <g transform="translate(11 5)">
      <polygon
        fill="none"
        stroke="#64ffda"
        stroke-width="5"
        stroke-linecap="round"
        stroke-linejoin="round"
        points="39 0 0 22 0 67 39 90 78 68 78 23"
      />
      <g transform="translate(39.5 45.5) scale(1.12) translate(-39.5 -45.5)">
        <path
          fill="#64ffda"
          d="M39.7552 60.8142Q34.6114 60.8142 31.5548 58.4402Q28.4982 56.0661 28.3202 51.6939L28.3202 51.6939L33.5233 51.6939Q33.7013 54.0284 35.4621 55.166Q37.2228 56.3035 39.7156 56.3035L39.7156 56.3035Q42.327 56.3035 43.979 55.1264Q45.6309 53.9493 45.6309 52.05L45.6309 52.05Q45.6309 50.3288 44.1669 49.4485Q42.7029 48.5681 40.3091 47.9548L40.3091 47.9548L36.9656 47.0843Q33.2661 46.1347 31.1987 44.2157Q29.1313 42.2967 29.1313 39.1708L29.1313 39.1708Q29.1313 36.5594 30.5359 34.6107Q31.9406 32.662 34.374 31.5739Q36.8074 30.4858 39.8936 30.4858L39.8936 30.4858Q43.0392 30.4858 45.4034 31.5739Q47.7676 32.662 49.1128 34.581Q50.4581 36.5 50.5175 38.9532L50.5175 38.9532L45.3935 38.9532Q45.1957 37.0738 43.702 36.0252Q42.2083 34.9767 39.8145 34.9767L39.8145 34.9767Q37.3218 34.9767 35.8973 36.0747Q34.4729 37.1727 34.4729 38.8543L34.4729 38.8543Q34.4729 40.1007 35.2346 40.8821Q35.9962 41.6636 37.1536 42.1384Q38.3109 42.6132 39.498 42.91L39.498 42.91L42.2479 43.6222Q44.4241 44.1563 46.4124 45.1554Q48.4006 46.1545 49.6569 47.8361Q50.9132 49.5177 50.9132 52.0896L50.9132 52.0896Q50.9132 54.6813 49.5877 56.6497Q48.2621 58.6182 45.7694 59.7162Q43.2767 60.8142 39.7552 60.8142Z"
        />
      </g>
    </g>
  </g>
</svg>
